<?xml version="1.0" standalone="no"?>
<!DOCTYPE svg PUBLIC "-//W3C//DTD SVG 20010904//EN"
 "http://www.w3.org/TR/2001/REC-SVG-20010904/DTD/svg10.dtd">
<svg version="1.0" xmlns="http://www.w3.org/2000/svg"
 width="1024.000000pt" height="1024.000000pt" viewBox="0 0 1024.000000 1024.000000"
 preserveAspectRatio="xMidYMid meet">

<g transform="translate(0.000000,1024.000000) scale(0.100000,-0.100000)"
fill="#ffffff" stroke="none">
<path d="M6275 7940 c-126 -37 -201 -74 -277 -133 l-38 -29 -29 21 c-83 60
-232 99 -402 108 l-127 6 -16 -26 c-35 -53 6 -93 289 -278 321 -211 453 -346
560 -571 69 -147 89 -242 89 -428 -1 -134 -5 -169 -27 -255 -64 -244 -243
-487 -470 -637 l-42 -28 -5 190 c-5 206 -6 210 -61 210 -15 0 -56 -9 -91 -20
-218 -67 -417 -301 -467 -551 l-12 -55 -80 -24 c-105 -30 -277 -115 -359 -178
-186 -141 -302 -307 -351 -503 -29 -113 -23 -267 15 -384 83 -258 318 -478
618 -578 119 -40 229 -58 388 -64 309 -12 592 52 888 199 102 51 103 52 130
35 53 -34 198 -105 257 -125 211 -72 453 -69 607 9 63 31 88 58 88 93 0 25
-18 47 -114 138 -64 61 -134 139 -162 180 -48 73 -113 223 -114 265 0 12 23
57 51 100 66 100 158 292 198 412 103 308 127 717 61 1051 -98 498 -357 931
-758 1268 -95 79 -113 98 -107 116 14 48 35 170 35 202 0 52 -29 182 -52 237
-23 53 -26 54 -113 27z m61 -127 c22 -73 21 -207 -1 -283 -32 -110 -37 -98 67
-180 253 -202 469 -463 602 -725 86 -171 166 -386 166 -446 0 -21 -41 -39 -89
-39 -32 0 -45 6 -68 33 -27 31 -38 55 -95 205 -72 191 -142 251 -212 182 -17
-17 -19 -39 -20 -312 l-1 -293 28 -60 c60 -129 153 -215 266 -249 71 -21 123
-20 191 4 30 10 56 17 58 15 2 -2 -1 -66 -7 -142 -24 -328 -118 -613 -286
-870 l-67 -102 17 -58 c50 -172 128 -300 271 -441 57 -56 104 -106 104 -111 0
-13 -102 -50 -170 -63 -78 -15 -260 -3 -350 22 -89 25 -235 93 -310 143 l-53
36 -121 -64 c-134 -71 -333 -142 -496 -176 -88 -19 -138 -23 -305 -23 -273 -1
-404 26 -595 126 -221 114 -375 295 -424 499 -20 84 -20 224 0 308 70 288 356
544 705 629 40 10 76 25 80 33 4 7 12 48 18 89 20 137 117 301 239 401 59 50
156 99 194 99 l30 0 -4 -220 c-2 -145 0 -220 7 -220 15 0 138 74 214 127 85
61 225 201 284 285 56 78 126 217 156 308 25 78 51 242 51 325 0 283 -113 559
-317 776 -91 96 -170 157 -395 309 -109 72 -198 134 -198 137 0 3 35 3 79 0
130 -10 277 -65 377 -141 8 -7 28 5 64 36 29 26 75 58 101 73 43 23 172 74
191 75 4 0 15 -26 24 -57z"/>
<path d="M5105 4821 c-22 -10 -57 -36 -79 -57 -55 -55 -76 -106 -76 -185 0
-54 5 -77 28 -120 48 -92 129 -139 240 -139 65 0 108 17 159 63 82 74 110 194
70 299 -22 58 -100 132 -153 147 -59 17 -144 13 -189 -8z"/>
<path d="M5925 4325 c-49 -14 -146 -39 -215 -56 -168 -40 -204 -55 -245 -100
-59 -66 -41 -143 43 -182 59 -28 195 -29 292 -3 155 41 334 155 367 233 11 28
11 38 -1 67 -28 66 -104 79 -241 41z"/>
<path d="M4545 7659 c-95 -13 -221 -43 -335 -80 -100 -33 -300 -123 -349 -159
l-30 -21 -86 50 c-86 49 -232 102 -334 121 -85 16 -275 12 -350 -6 -74 -19
-155 -56 -188 -87 -15 -13 -23 -32 -23 -52 0 -28 11 -41 75 -95 93 -78 185
-184 232 -269 44 -77 93 -196 93 -222 0 -11 -17 -43 -39 -72 -231 -311 -358
-799 -322 -1242 39 -493 198 -885 503 -1240 109 -126 299 -300 417 -382 2 -2
-2 -22 -9 -45 -20 -68 -28 -167 -18 -246 10 -84 42 -178 63 -186 21 -8 172 32
230 61 28 14 73 45 101 68 l50 43 70 -34 c101 -50 209 -75 354 -81 118 -5 126
-4 144 15 43 48 -10 98 -282 268 -235 147 -347 239 -453 371 -146 183 -221
395 -222 628 -1 275 95 511 293 719 78 81 237 213 246 203 3 -3 5 -75 5 -159
-2 -171 7 -215 46 -224 73 -19 225 42 318 128 120 109 211 259 249 409 l23 92
84 24 c176 50 300 116 427 224 192 163 310 392 320 619 15 349 -217 657 -598
795 -148 53 -230 66 -440 70 -107 2 -226 -1 -265 -6z m106 -250 c42 -15 85
-54 93 -85 9 -35 -17 -88 -56 -112 -33 -20 -249 -88 -376 -117 -35 -8 -92 -15
-128 -15 -56 0 -68 3 -91 26 -54 54 -5 136 130 216 105 63 216 98 313 98 45 0
96 -5 115 -11z m454 -365 c70 -33 128 -113 141 -192 15 -95 -43 -207 -130
-251 -40 -20 -59 -23 -126 -19 -68 3 -84 7 -121 33 -68 48 -102 104 -107 175
-10 132 56 231 178 271 34 11 126 2 165 -17z m-1848 -1331 c77 -37 172 -132
207 -206 42 -91 51 -159 37 -317 -6 -75 -11 -172 -11 -217 0 -95 -14 -141 -46
-153 -66 -25 -121 43 -179 220 -61 189 -127 249 -230 210 -22 -9 -27 -7 -35
15 -12 32 -40 295 -40 378 l0 64 38 16 c55 24 71 26 139 22 41 -3 82 -14 120
-32z"/>
</g>
</svg>
